<svg width="72" height="72" viewBox="0 0 72 72" fill="none" xmlns="http://www.w3.org/2000/svg">
<path d="M49.8103 30.2018C49.9792 30.0329 50.1133 29.8323 50.2047 29.6116C50.2961 29.3908 50.3432 29.1542 50.3432 28.9153C50.3432 28.6764 50.2961 28.4398 50.2047 28.2191C50.1133 27.9983 49.9792 27.7978 49.8103 27.6288C49.6414 27.4599 49.4408 27.3259 49.2201 27.2344C48.9993 27.143 48.7627 27.0959 48.5238 27.0959C48.2849 27.0959 48.0483 27.143 47.8276 27.2344C47.6068 27.3259 47.4063 27.4599 47.2373 27.6288L34.3362 40.53L28.0668 34.2606C27.7256 33.9194 27.2628 33.7277 26.7803 33.7277C26.2978 33.7277 25.835 33.9194 25.4938 34.2606C25.1526 34.6018 24.9609 35.0646 24.9609 35.5471C24.9609 36.0296 25.1526 36.4924 25.4938 36.8336L33.0316 44.3713C33.3777 44.7031 33.8386 44.8883 34.3181 44.8883C34.7975 44.8883 35.2584 44.7031 35.6045 44.3713L49.8103 30.2018Z" fill="black"/>
<path d="M36.0036 72C28.8834 72.0007 21.9228 69.89 16.0021 65.9347C10.0815 61.9794 5.4667 56.3572 2.74139 49.7791C0.0160831 43.201 -0.697354 35.9625 0.691304 28.979C2.07996 21.9954 5.50834 15.5805 10.5429 10.5455C15.5774 5.5104 21.992 2.08137 28.9754 0.692011C35.9588 -0.69735 43.1974 0.015358 49.7758 2.74001C56.3541 5.46465 61.9768 10.0789 65.9327 15.9991C69.8885 21.9194 72 28.8797 72 36C71.9895 45.5439 68.1937 54.694 61.4455 61.4429C54.6972 68.1918 45.5476 71.9885 36.0036 72ZM36.0036 3.62756C29.5999 3.62684 23.3399 5.52515 18.0151 9.0824C12.6903 12.6397 8.54003 17.6961 6.08911 23.6122C3.63819 29.5283 2.99673 36.0383 4.24585 42.319C5.49498 48.5997 8.57857 54.3689 13.1067 58.897C17.6348 63.4251 23.404 66.5087 29.6846 67.7578C35.9653 69.0069 42.4754 68.3654 48.3915 65.9145C54.3076 63.4636 59.364 59.3133 62.9212 53.9886C66.4785 48.6638 68.3768 42.4037 68.3761 36C68.3655 27.4175 64.9515 19.1896 58.8828 13.1209C52.814 7.05215 44.5861 3.63811 36.0036 3.62756Z" fill="black"/>
</svg>
